Coordinates
version=1
nRows=10
nColumns=40
inDegrees=yes

Units are S.I. units (second, meters, Newtons, ...)
Angles are in degrees.

endheader
time	pelvis_tilt	pelvis_list	pelvis_rotation	pelvis_tx	pelvis_ty	pelvis_tz	hip_flexion_r	hip_adduction_r	hip_rotation_r	knee_angle_r	knee_angle_r_beta	ankle_angle_r	subtalar_angle_r	mtp_angle_r	hip_flexion_l	hip_adduction_l	hip_rotation_l	knee_angle_l	knee_angle_l_beta	ankle_angle_l	subtalar_angle_l	mtp_angle_l	lumbar_extension	lumbar_bending	lumbar_rotation	arm_flex_r	arm_add_r	arm_rot_r	elbow_flex_r	pro_sup_r	wrist_flex_r	wrist_dev_r	arm_flex_l	arm_add_l	arm_rot_l	elbow_flex_l	pro_sup_l	wrist_flex_l	wrist_dev_l
     23.77142857	     -4.24792497	     -4.21166740	     -0.76553326	      1.08059642	      0.91910620	      0.41145940	     29.69285595	     -2.45723627	    -15.72133930	     14.10270032	     14.10270032	      1.55404830	      5.09441041	      9.11709616	     -0.05370899	     -5.74137421	    -11.65735092	     14.31456392	     14.31456392	     17.87155147	     -7.99103371	     -6.27088159	    -12.74313424	      5.18570906	      2.65783824	    -13.59424073	    -16.47135056	     -3.66537188	     27.89000836	     46.64434493	      0.00000000	      0.00000000	     20.33579910	    -15.63443551	     -8.37255588	    102.14554913	     48.11849103	      0.00000000	      0.00000000
     23.78285714	     -4.25560570	     -4.22944215	     -0.57887782	      1.08278892	      0.91709023	      0.41330579	     29.08797036	     -2.23493262	    -15.77782235	     14.23607563	     14.23607563	      1.26663255	      5.10707670	      8.43020380	     -0.71829924	     -5.98189867	    -11.94892161	     14.42901676	     14.42901676	     18.68163445	     -7.17732678	     -6.25422825	    -12.55145977	      5.24370485	      2.76820265	    -15.15846198	    -16.29512587	     -3.61157226	     28.82458110	     46.57197260	      0.00000000	      0.00000000	     20.22915590	    -15.50581766	     -8.06994520	    104.50022367	     48.16442979	      0.00000000	      0.00000000
     23.79428571	     -4.31477041	     -4.36606420	     -0.36146598	      1.08495442	      0.91496968	      0.41553996	     28.53842691	     -1.84124430	    -15.51740350	     14.50027547	     14.50027547	      0.11913298	      4.44450944	      5.13146614	     -1.07110137	     -6.48809654	    -12.37221969	     15.08690362	     15.08690362	     20.04698947	     -5.93842593	     -5.16027942	    -12.23456208	      5.42029153	      2.43382704	    -16.82164656	    -16.28720853	     -3.28269654	     31.29965459	     46.39193445	      0.00000000	      0.00000000	     19.80286967	    -15.89742426	     -8.12536813	    106.01463784	     48.25649507	      0.00000000	      0.00000000
     23.80571429	     -4.35877114	     -4.50094126	     -0.16603574	      1.08696157	      0.91316499	      0.41777953	     28.21917681	     -1.56544766	    -15.37217620	     15.40586931	     15.40586931	      0.06748086	      4.12996144	      4.60938776	     -1.54777895	     -6.85315884	    -12.17659636	     15.39275838	     15.39275838	     20.51502561	     -6.05387429	     -5.17270260	    -11.94022686	      5.58790291	      2.48779181	    -17.58400726	    -15.98681804	     -3.15615376	     31.05597330	     46.38355977	      0.00000000	      0.00000000	     19.76930341	    -15.71634729	     -8.12634083	    106.50788688	     48.27263101	      0.00000000	      0.00000000
     23.81714286	     -4.44670708	     -4.55174208	     -0.00242644	      1.08877647	      0.91139553	      0.42018993	     28.14784614	     -1.36658499	    -14.93545239	     16.64509978	     16.64509978	     -0.10451805	      3.27220775	      3.40044944	     -1.69769080	     -7.21152059	    -12.03012043	     16.23738890	     16.23738890	     21.10656649	     -6.17224653	     -5.02046033	    -11.65067771	      5.66289461	      2.64059446	    -18.18196872	    -15.66894562	     -3.03853593	     31.01603539	     46.36592751	      0.00000000	      0.00000000	     19.57561373	    -15.46431935	     -7.99113663	    107.54240206	     48.29632690	      0.00000000	      0.00000000
     23.82857143	     -4.43760568	     -4.71049091	      0.19148176	      1.09058170	      0.91010283	      0.42292589	     27.73293246	     -0.92354549	    -14.25893269	     17.29130777	     17.29130777	     -1.40601760	      1.76862339	     -1.24232770	     -1.72813945	     -7.82669554	    -12.10775346	     17.56693122	     17.56693122	     22.28613674	     -5.63262698	     -3.32975696	    -11.52903442	      5.78491194	      2.30800385	    -18.43693454	    -15.43493509	     -2.72478795	     31.40968569	     46.29284228	      0.00000000	      0.00000000	     18.73186929	    -15.57492946	     -8.21253682	    108.81079044	     48.40991353	      0.00000000	      0.00000000
     23.84000000	     -4.25049426	     -4.88517090	      0.32726718	      1.09224552	      0.90966830	      0.42564795	     27.33037714	     -0.60843611	    -14.03864591	     18.39856307	     18.39856307	     -1.02280121	      1.37210088	     -1.65173984	     -2.03567003	     -8.35068245	    -11.84980013	     18.59485194	     18.59485194	     22.33300620	     -6.14784042	     -3.42666048	    -11.66261434	      5.97868756	      2.47198969	    -18.46863623	    -15.07697562	     -2.63824390	     31.34556160	     46.28731597	      0.00000000	      0.00000000	     18.21146898	    -15.33408282	     -8.11151478	    108.87971812	     48.40649205	      0.00000000	      0.00000000
     23.85142857	     -4.42153689	     -4.97557454	      0.47339828	      1.09320551	      0.90888870	      0.42848528	     27.55129618	     -0.36885154	    -13.47489007	     19.75156859	     19.75156859	     -0.57846745	      0.18449770	     -2.21949191	     -1.37610234	     -8.88228101	    -11.34791579	     20.58869563	     20.58869563	     22.30884529	     -7.13674018	     -3.59203536	    -11.45416172	      6.03233458	      2.53829363	    -18.22676309	    -14.71764059	     -2.51665073	     31.20233463	     46.28136666	      0.00000000	      0.00000000	     17.59230847	    -15.11881421	     -8.00447481	    109.33933394	     48.42119385	      0.00000000	      0.00000000
     23.86285714	     -4.36859811	     -5.10636088	      0.59736327	      1.09417536	      0.90901458	      0.43139492	     27.38657758	     -0.06737696	    -13.06712022	     20.79026809	     20.79026809	      0.01417324	     -0.63952988	     -2.60823113	     -0.88823344	     -9.46176700	    -10.85187998	     22.68468319	     22.68468319	     21.94821959	     -8.24040349	     -3.79467653	    -11.55495858	      6.15846176	      2.54994845	    -17.63248277	    -14.37080575	     -2.36092908	     31.04786448	     46.27665233	      0.00000000	      0.00000000	     16.73286674	    -14.92882954	     -7.97543230	    109.45132037	     48.43337341	      0.00000000	      0.00000000
     23.87428571	     -4.10555463	     -5.22985486	      0.69461759	      1.09511682	      0.90990424	      0.43436067	     26.89090469	      0.21561580	    -12.88852396	     21.60136584	     21.60136584	      0.74028700	     -1.04304053	     -2.92244537	     -0.49167710	    -10.06737596	    -10.43800970	     25.00807934	     25.00807934	     21.30957597	     -9.30952197	     -4.03263635	    -11.93344314	      6.28878131	      2.71987064	    -16.89134919	    -14.05904537	     -2.24489005	     31.09485669	     46.27079045	      0.00000000	      0.00000000	     15.89114663	    -14.64462927	     -7.85350358	    109.22110421	     48.42279525	      0.00000000	      0.00000000
